<mxfile host="Electron" modified="2024-03-03T08:17:44.133Z" agent="Mozilla/5.0 (Windows NT 10.0; Win64; x64) AppleWebKit/537.36 (KHTML, like Gecko) draw.io/23.1.5 Chrome/120.0.6099.109 Electron/28.1.0 Safari/537.36" etag="obrEtzsq0KjSVKLv_UXS" version="23.1.5" type="device">
  <diagram name="Page-1" id="7xzbOkxX2IZ6X8axa4eU">
    <mxGraphModel dx="1839" dy="1778" grid="1" gridSize="10" guides="1" tooltips="1" connect="1" arrows="1" fold="1" page="1" pageScale="1" pageWidth="850" pageHeight="1100" math="0" shadow="0">
      <root>
        <mxCell id="0" />
        <mxCell id="1" parent="0" />
        <mxCell id="4MWtmPIM1CSzIzaIt1H4-7" value="Spring Boot Application" style="rounded=0;whiteSpace=wrap;html=1;labelBackgroundColor=none;verticalAlign=top;fillColor=none;movable=1;resizable=1;rotatable=1;deletable=1;editable=1;locked=0;connectable=1;" vertex="1" parent="1">
          <mxGeometry x="-240" y="80" width="1570" height="880" as="geometry" />
        </mxCell>
        <mxCell id="4MWtmPIM1CSzIzaIt1H4-40" value="Business logic layer" style="rounded=0;whiteSpace=wrap;html=1;pointerEvents=0;align=center;verticalAlign=bottom;fontFamily=Helvetica;fontSize=12;fontColor=default;fillColor=default;gradientColor=none;" vertex="1" parent="1">
          <mxGeometry x="270" y="290" width="560" height="170" as="geometry" />
        </mxCell>
        <mxCell id="4MWtmPIM1CSzIzaIt1H4-8" value="Client application (ReactJS)" style="rounded=0;whiteSpace=wrap;html=1;labelBackgroundColor=none;verticalAlign=middle;fillColor=default;align=center;" vertex="1" parent="1">
          <mxGeometry x="-625" y="320" width="200" height="90" as="geometry" />
        </mxCell>
        <mxCell id="4MWtmPIM1CSzIzaIt1H4-14" value="PLC S7-1200" style="group;fillColor=default;verticalAlign=bottom;" vertex="1" connectable="0" parent="1">
          <mxGeometry x="450" y="-250" width="180" height="170" as="geometry" />
        </mxCell>
        <mxCell id="4MWtmPIM1CSzIzaIt1H4-10" value="" style="shape=image;verticalLabelPosition=bottom;labelBackgroundColor=default;verticalAlign=top;aspect=fixed;imageAspect=0;image=https://ctisupply.vn/wp-content/uploads/2020/01/PLC-Siemens-S7-1200.png;movable=0;resizable=0;rotatable=0;deletable=0;editable=0;locked=1;connectable=0;" vertex="1" parent="4MWtmPIM1CSzIzaIt1H4-14">
          <mxGeometry x="39.99545454545449" y="35.00333333333333" width="102.83000000000001" height="80" as="geometry" />
        </mxCell>
        <mxCell id="4MWtmPIM1CSzIzaIt1H4-13" value="" style="rounded=0;whiteSpace=wrap;html=1;pointerEvents=0;align=center;verticalAlign=top;fontFamily=Helvetica;fontSize=12;fontColor=default;fillColor=none;gradientColor=none;" vertex="1" parent="4MWtmPIM1CSzIzaIt1H4-14">
          <mxGeometry width="180" height="170" as="geometry" />
        </mxCell>
        <mxCell id="4MWtmPIM1CSzIzaIt1H4-16" style="edgeStyle=orthogonalEdgeStyle;rounded=0;orthogonalLoop=1;jettySize=auto;html=1;fontFamily=Helvetica;fontSize=12;fontColor=default;entryX=0;entryY=0.5;entryDx=0;entryDy=0;" edge="1" parent="1" source="4MWtmPIM1CSzIzaIt1H4-15" target="4MWtmPIM1CSzIzaIt1H4-13">
          <mxGeometry relative="1" as="geometry">
            <mxPoint x="300" y="-180" as="targetPoint" />
            <Array as="points">
              <mxPoint x="320" y="160" />
              <mxPoint x="320" y="-165" />
            </Array>
          </mxGeometry>
        </mxCell>
        <mxCell id="4MWtmPIM1CSzIzaIt1H4-19" value="Fetch data" style="edgeLabel;html=1;align=center;verticalAlign=middle;resizable=0;points=[];pointerEvents=0;fontFamily=Helvetica;fontSize=12;fontColor=default;fillColor=none;gradientColor=none;" vertex="1" connectable="0" parent="4MWtmPIM1CSzIzaIt1H4-16">
          <mxGeometry x="0.0844" y="-9" relative="1" as="geometry">
            <mxPoint x="31" as="offset" />
          </mxGeometry>
        </mxCell>
        <mxCell id="4MWtmPIM1CSzIzaIt1H4-30" style="edgeStyle=orthogonalEdgeStyle;rounded=0;orthogonalLoop=1;jettySize=auto;html=1;exitX=0.5;exitY=1;exitDx=0;exitDy=0;entryX=0.5;entryY=0;entryDx=0;entryDy=0;fontFamily=Helvetica;fontSize=12;fontColor=default;" edge="1" parent="1" source="4MWtmPIM1CSzIzaIt1H4-15" target="4MWtmPIM1CSzIzaIt1H4-26">
          <mxGeometry relative="1" as="geometry" />
        </mxCell>
        <mxCell id="4MWtmPIM1CSzIzaIt1H4-32" style="edgeStyle=orthogonalEdgeStyle;rounded=0;orthogonalLoop=1;jettySize=auto;html=1;entryX=0.5;entryY=0;entryDx=0;entryDy=0;fontFamily=Helvetica;fontSize=12;fontColor=default;exitX=0.5;exitY=1;exitDx=0;exitDy=0;" edge="1" parent="1" source="4MWtmPIM1CSzIzaIt1H4-15" target="4MWtmPIM1CSzIzaIt1H4-29">
          <mxGeometry relative="1" as="geometry" />
        </mxCell>
        <mxCell id="4MWtmPIM1CSzIzaIt1H4-15" value="PLC Integration layer" style="rounded=0;whiteSpace=wrap;html=1;pointerEvents=0;align=center;verticalAlign=middle;fontFamily=Helvetica;fontSize=12;fontColor=default;fillColor=default;gradientColor=none;" vertex="1" parent="1">
          <mxGeometry x="470" y="120" width="140" height="80" as="geometry" />
        </mxCell>
        <mxCell id="4MWtmPIM1CSzIzaIt1H4-24" value="" style="group" vertex="1" connectable="0" parent="1">
          <mxGeometry x="703" y="-165" width="60" height="325" as="geometry" />
        </mxCell>
        <mxCell id="4MWtmPIM1CSzIzaIt1H4-18" style="edgeStyle=orthogonalEdgeStyle;rounded=0;orthogonalLoop=1;jettySize=auto;html=1;exitX=1;exitY=0.5;exitDx=0;exitDy=0;entryX=1;entryY=0.5;entryDx=0;entryDy=0;fontFamily=Helvetica;fontSize=12;fontColor=default;curved=0;dashed=1;" edge="1" parent="4MWtmPIM1CSzIzaIt1H4-24" source="4MWtmPIM1CSzIzaIt1H4-13" target="4MWtmPIM1CSzIzaIt1H4-15">
          <mxGeometry relative="1" as="geometry">
            <Array as="points">
              <mxPoint x="57" />
              <mxPoint x="57" y="325" />
            </Array>
          </mxGeometry>
        </mxCell>
        <mxCell id="4MWtmPIM1CSzIzaIt1H4-20" value="Return" style="text;html=1;align=center;verticalAlign=middle;resizable=0;points=[];autosize=1;strokeColor=none;fillColor=none;fontFamily=Helvetica;fontSize=12;fontColor=default;" vertex="1" parent="4MWtmPIM1CSzIzaIt1H4-24">
          <mxGeometry y="133" width="60" height="30" as="geometry" />
        </mxCell>
        <mxCell id="4MWtmPIM1CSzIzaIt1H4-26" value="Monitoring Processor" style="rounded=0;whiteSpace=wrap;html=1;pointerEvents=0;align=center;verticalAlign=middle;fontFamily=Helvetica;fontSize=12;fontColor=default;fillColor=default;gradientColor=none;" vertex="1" parent="1">
          <mxGeometry x="280" y="320" width="140" height="80" as="geometry" />
        </mxCell>
        <mxCell id="4MWtmPIM1CSzIzaIt1H4-28" value="Alarm Processor" style="rounded=0;whiteSpace=wrap;html=1;pointerEvents=0;align=center;verticalAlign=middle;fontFamily=Helvetica;fontSize=12;fontColor=default;fillColor=default;gradientColor=none;" vertex="1" parent="1">
          <mxGeometry x="471" y="320" width="140" height="80" as="geometry" />
        </mxCell>
        <mxCell id="4MWtmPIM1CSzIzaIt1H4-29" value="Report Processor" style="rounded=0;whiteSpace=wrap;html=1;pointerEvents=0;align=center;verticalAlign=middle;fontFamily=Helvetica;fontSize=12;fontColor=default;fillColor=default;gradientColor=none;" vertex="1" parent="1">
          <mxGeometry x="671" y="320" width="140" height="80" as="geometry" />
        </mxCell>
        <mxCell id="4MWtmPIM1CSzIzaIt1H4-31" style="edgeStyle=orthogonalEdgeStyle;rounded=0;orthogonalLoop=1;jettySize=auto;html=1;entryX=0.5;entryY=0;entryDx=0;entryDy=0;fontFamily=Helvetica;fontSize=12;fontColor=default;" edge="1" parent="1" source="4MWtmPIM1CSzIzaIt1H4-15" target="4MWtmPIM1CSzIzaIt1H4-28">
          <mxGeometry relative="1" as="geometry" />
        </mxCell>
        <mxCell id="4MWtmPIM1CSzIzaIt1H4-35" value="Dispatch fetched data" style="text;html=1;align=center;verticalAlign=middle;whiteSpace=wrap;rounded=0;fontFamily=Helvetica;fontSize=12;fontColor=default;" vertex="1" parent="1">
          <mxGeometry x="540" y="220" width="100" height="30" as="geometry" />
        </mxCell>
        <mxCell id="4MWtmPIM1CSzIzaIt1H4-38" value="Database" style="shape=datastore;whiteSpace=wrap;html=1;pointerEvents=0;align=center;verticalAlign=middle;fontFamily=Helvetica;fontSize=12;fontColor=default;fillColor=default;gradientColor=none;" vertex="1" parent="1">
          <mxGeometry x="1480" y="280" width="140" height="190" as="geometry" />
        </mxCell>
        <mxCell id="4MWtmPIM1CSzIzaIt1H4-41" value="API layer" style="rounded=0;whiteSpace=wrap;html=1;pointerEvents=0;align=center;verticalAlign=top;fontFamily=Helvetica;fontSize=12;fontColor=default;fillColor=none;gradientColor=none;" vertex="1" parent="1">
          <mxGeometry x="-170" y="230" width="320" height="220" as="geometry" />
        </mxCell>
        <mxCell id="4MWtmPIM1CSzIzaIt1H4-42" value="Data access layer" style="rounded=0;whiteSpace=wrap;html=1;pointerEvents=0;align=center;verticalAlign=middle;fontFamily=Helvetica;fontSize=12;fontColor=default;fillColor=default;gradientColor=none;" vertex="1" parent="1">
          <mxGeometry x="900" y="290" width="200" height="170" as="geometry" />
        </mxCell>
        <mxCell id="4MWtmPIM1CSzIzaIt1H4-43" value="REST Controllers" style="rounded=0;whiteSpace=wrap;html=1;pointerEvents=0;align=center;verticalAlign=middle;fontFamily=Helvetica;fontSize=12;fontColor=default;fillColor=default;gradientColor=none;" vertex="1" parent="1">
          <mxGeometry x="-70" y="280" width="120" height="60" as="geometry" />
        </mxCell>
        <mxCell id="4MWtmPIM1CSzIzaIt1H4-44" value="Websocket Controllers" style="rounded=0;whiteSpace=wrap;html=1;pointerEvents=0;align=center;verticalAlign=middle;fontFamily=Helvetica;fontSize=12;fontColor=default;fillColor=default;gradientColor=none;" vertex="1" parent="1">
          <mxGeometry x="-70" y="360" width="120" height="60" as="geometry" />
        </mxCell>
      </root>
    </mxGraphModel>
  </diagram>
</mxfile>
